<svg height="512" viewBox="0 0 512 512" width="512" xmlns="http://www.w3.org/2000/svg"><g id="Fill_out_line" data-name="Fill out line"><path d="m400 296a143.84792 143.84792 0 0 1 -144 144 145.7332 145.7332 0 0 1 -16-.87988 144.017 144.017 0 1 1 160-143.12012z" fill="#8fd1ec"/><path d="m288.51 385.1001-24.51 14.8999v16h-24v23.12012a144.03 144.03 0 0 1 -40-275.82007v44.69995h16l16 16-32 32h-16v24l24 24 8-8 32 16 8 24 32 8z" fill="#59b55d"/><path d="m400 296a143.92322 143.92322 0 0 1 -8.11 47.77l-15.89-31.77-32 8-32-24 24-56-24-32 17.83008-35.6499a143.90407 143.90407 0 0 1 70.16992 123.6499z" fill="#59b55d"/><path d="m192 64h128v104h-128z" fill="#e94042"/><path d="m288 64h32v104h-32z" fill="#d6393b"/><circle cx="112" cy="376" fill="#f3e19f" r="88"/><path d="m72 352h8a0 0 0 0 1 0 0v48a0 0 0 0 1 0 0h-8a24 24 0 0 1 -24-24 24 24 0 0 1 24-24z" fill="#e94042"/><path d="m80 400a79.26656 79.26656 0 0 1 43.96917 13.31279l4.03083 2.68721v-80l-4.03081 2.68721a79.26656 79.26656 0 0 1 -43.96919 13.31279z" fill="#c9d9e5"/><rect fill="#e94042" height="112" rx="12" width="24" x="128" y="320"/><path d="m152 360h8a16 16 0 0 1 16 16 16 16 0 0 1 -16 16h-8a0 0 0 0 1 0 0v-32a0 0 0 0 1 0 0z" fill="#d6393b"/><circle cx="400" cy="384" fill="#f3e19f" r="88"/><path d="m392 376v-16l-8-16 8-16h32v48z" fill="#f7c699"/><path d="m427.2 374.4a32 32 0 0 1 12.8 25.6v32h-64v-32a32 32 0 0 1 12.8-25.6 32 32 0 0 1 38.4 0z" fill="#e94042"/><path d="m123.37012 265.77051a136.29619 136.29619 0 0 1 49.52295-77.43262l-9.78614-12.6582a152.33135 152.33135 0 0 0 -55.34033 86.5498z"/><path d="m390.11914 273.32324 15.7793-2.64648a151.49011 151.49011 0 0 0 -57.00537-94.99707l-9.78614 12.6582a135.53651 135.53651 0 0 1 51.01221 84.98535z"/><path d="m256 480a183.28146 183.28146 0 0 1 -59.011-9.67529l8.66773-8.66748-11.31348-11.31446-16 16a8.00076 8.00076 0 0 0 -2.34325 5.65723v24h16v-10.47314a200.67322 200.67322 0 0 0 144.06006-6.19678l-6.41113-14.66016a182.67984 182.67984 0 0 1 -73.64893 15.33008z"/><path d="m192 176h128a7.9979 7.9979 0 0 0 8-8v-104a7.9979 7.9979 0 0 0 -8-8h-16v-8a31.99034 31.99034 0 0 0 -48.01-27.69995 31.68806 31.68806 0 0 0 -15.99-4.30005 32.036 32.036 0 0 0 -32 32v8h-16a7.99786 7.99786 0 0 0 -8 8v104a7.99786 7.99786 0 0 0 8 8zm104-104h16v88h-16zm-24-40a16.02116 16.02116 0 0 1 16 16v8h-16v-8a31.79937 31.79937 0 0 0 -4.01-15.49 15.85523 15.85523 0 0 1 4.01-.51zm-48 16a16 16 0 0 1 32 0v8h-32zm-24 24h80v88h-80z"/><path d="m202.34326 309.65723a8.00182 8.00182 0 0 0 11.31348 0l3.92285-3.92285 23.87891 11.93945 6.95214 20.85644a7.99818 7.99818 0 0 0 5.64893 5.23047l25.94043 6.48535v29.47266l-20.4375 13.625a7.99943 7.99943 0 0 0 -3.5625 6.65625v8h-16a8.00008 8.00008 0 0 0 -8 8v13.88477a134.91305 134.91305 0 0 1 -21.334-5.62207l-5.332 15.08593a152.7001 152.7001 0 0 0 100.74707.20606l-5.26953-15.10742a135.70861 135.70861 0 0 1 -44.81154 7.55273q-4.01505 0-8-.23657v-7.76343h16a8.00008 8.00008 0 0 0 8-8v-11.71875l20.4375-13.625a7.99943 7.99943 0 0 0 3.5625-6.65625v-40a7.9992 7.9992 0 0 0 -6.05957-7.76074l-27.73975-6.93555-6.61132-19.834a7.99648 7.99648 0 0 0 -4.01172-4.625l-32-16a8.00137 8.00137 0 0 0 -9.23438 1.498l-2.34326 2.34381-16-16v-12.68652h8a8.00035 8.00035 0 0 0 5.65674-2.34277l32-32a8.00034 8.00034 0 0 0 0-11.31446l-16-16a8.00035 8.00035 0 0 0 -5.65674-2.34277h-8v-8h-16v16a8.00008 8.00008 0 0 0 8 8h12.68652l8 8-24 24h-12.68652a8.00008 8.00008 0 0 0 -8 8v24a8.00076 8.00076 0 0 0 2.34326 5.65723z"/><path d="m342.3999 235.2002-21.03271-28.04395 5.7876-11.57324-14.30958-7.15625-8 15.99512a7.998 7.998 0 0 0 .75489 8.37792l21.22461 28.29981-22.17774 51.749a8.00056 8.00056 0 0 0 2.55323 9.55176l10.6665 8 9.6001-12.80078-5.63672-4.22754 21.52295-50.2207a7.99945 7.99945 0 0 0 -.95313-7.95115z"/><path d="m208 376a96 96 0 1 0 -96 96 96.11466 96.11466 0 0 0 96-96zm-96 80a80 80 0 1 1 80-80 80.09346 80.09346 0 0 1 -80 80z"/><path d="m160 352v-20a19.996 19.996 0 0 0 -39.99-.29l-.48.32007a71.01956 71.01956 0 0 1 -39.53 11.96993h-8a32 32 0 0 0 0 64v24h16v-23.55a70.97069 70.97069 0 0 1 31.53 11.52l.48.32007a19.996 19.996 0 0 0 39.99-.29007v-20a24 24 0 0 0 0-48zm-88 40a16 16 0 0 1 0-32zm48 9.7a87.01923 87.01923 0 0 0 -32-9.34009v-32.71977a87.01923 87.01923 0 0 0 32-9.34009zm24 18.3a4 4 0 0 1 -8 0v-88a4 4 0 0 1 8 0zm16-36v-16a8 8 0 0 1 0 16z"/><path d="m400 288a96 96 0 1 0 96 96 96.1147 96.1147 0 0 0 -96-96zm0 176a80 80 0 1 1 80-80 80.09346 80.09346 0 0 1 -80 80z"/><path d="m432 368v-40a7.9979 7.9979 0 0 0 -8-8h-56v16h11.05l-2.21 4.41992a8.04838 8.04838 0 0 0 0 7.16016l7.16 14.31006v6.10986a40.18649 40.18649 0 0 0 -16 32v32a7.9979 7.9979 0 0 0 8 8h64a7.9979 7.9979 0 0 0 8-8v-32a40.163 40.163 0 0 0 -16-32zm-35.05-32h19.05v24.8501a40.27406 40.27406 0 0 0 -16 0v-.8501a8.0815 8.0815 0 0 0 -.84009-3.58008l-6.21997-12.41992zm35.05 88h-24v-24h-16v24h-8v-24a24 24 0 0 1 48 0z"/><path d="m461.20508 251.42578-9.07007 5.23633a200.66643 200.66643 0 0 0 -77.39673-121.66011l-9.49023 12.88086a184.677 184.677 0 0 1 71.22705 112.05952l-11.84082-3.17285-4.14112 15.45508 21.85645 5.85644a7.99972 7.99972 0 0 0 6.0708-.7998l20.78467-12z"/><path d="m143.57959 138.71875-20.78467-12-8 13.85547 9.07025 5.23706a200.66518 200.66518 0 0 0 -66.66302 127.85772l15.90085 1.77729a184.67079 184.67079 0 0 1 61.433-117.71314l3.17243 11.84009 15.45507-4.14062-5.85644-21.85645a7.99876 7.99876 0 0 0 -3.72747-4.85742z"/></g></svg>